<?xml version="1.0" encoding="utf-8"?>
<!-- Generator: Adobe Illustrator 28.1.0, SVG Export Plug-In . SVG Version: 6.00 Build 0)  -->
<svg version="1.1" id="Layer_1" xmlns="http://www.w3.org/2000/svg" xmlns:xlink="http://www.w3.org/1999/xlink" x="0px" y="0px"
	 viewBox="0 0 250 250" style="enable-background:new 0 0 250 250;" xml:space="preserve">
<style type="text/css">
	.st0{fill:#3E2B2F;}
	.st1{fill:#007853;}
	.st2{fill:#FFFFFF;}
</style>
<path class="st0" d="M76.4,61.1h22.1c22.2,0,24,7.4,24,36.2v29.5c0,25.4-4.5,33.3-26.2,33.3H76.4V61.1z M90.2,148.5h6.6
	c10.2,0,12.1-5.4,12.1-22.3v-34c0-14.7-1.5-19.6-13.2-19.6h-5.5V148.5z"/>
<path class="st0" d="M130.7,86.3c0-13.8,4.5-26,23.2-26c13.6,0,19.9,6.8,19.9,18v9.9h-12.9v-6.9c0-6.3-2.2-10.3-8-10.3
	c-7.1,0-8.5,5.1-8.5,17v48.5c0,11.7,3.7,13.7,8.1,13.7c5.1,0,8.4-3.6,8.4-11.8v-6.8h12.9v11c0,10.4-4.2,18.4-20.2,18.4
	c-17.3,0-22.9-9.2-22.9-24.5V86.3z"/>
<rect x="76.2" y="180.4" class="st1" width="47.8" height="9.3"/>
<rect x="126" y="180.4" class="st0" width="47.8" height="9.3"/>
<rect x="124" y="180.4" class="st2" width="2.1" height="9.3"/>
</svg>
